<!-- <svg xmlns="http://www.w3.org/2000/svg" fill="white" class="bi bi-chat-fill fs-2" viewBox="0 0 16 16">
	<path d="M8 15c4.418 0 8-3.134 8-7s-3.582-7-8-7-8 3.134-8 7c0 1.76.743 3.37 1.97 4.6-.097 1.016-.417 2.13-.771 2.966-.079.186.074.394.273.362 2.256-.37 3.597-.938 4.18-1.234A9 9 0 0 0 8 15"/>
</svg> -->
<svg xmlns="http://www.w3.org/2000/svg" width="16" height="16" fill="white" class="bi bi-chat-text-fill" viewBox="0 0 16 16">
  <path d="M16 8c0 3.866-3.582 7-8 7a9 9 0 0 1-2.347-.306c-.584.296-1.925.864-4.181 1.234-.2.032-.352-.176-.273-.362.354-.836.674-1.95.77-2.966C.744 11.37 0 9.76 0 8c0-3.866 3.582-7 8-7s8 3.134 8 7M4.5 5a.5.5 0 0 0 0 1h7a.5.5 0 0 0 0-1zm0 2.5a.5.5 0 0 0 0 1h7a.5.5 0 0 0 0-1zm0 2.5a.5.5 0 0 0 0 1h4a.5.5 0 0 0 0-1z"/>
</svg>